<?xml version="1.0" encoding="utf-8"?>
<!-- Generator: Adobe Illustrator 27.0.0, SVG Export Plug-In . SVG Version: 6.00 Build 0)  -->
<svg version="1.1" id="Layer_1" xmlns="http://www.w3.org/2000/svg" xmlns:xlink="http://www.w3.org/1999/xlink" x="0px" y="0px"
	 viewBox="0 0 681 400" style="enable-background:new 0 0 681 400;" xml:space="preserve">
<g>
	<g>
		<g>
			<path d="M250.67,268.92c-2.47-5.25-3.16-12.9-3.16-19.93c0-3,0.12-5.9,0.28-8.43l-2.56,1.09l-2.06-10.12
				c7.06-2,13.03-2.91,17.96-2.91c13.96,0,19.21,7.28,19.21,15.59c0,10.97-9.12,23.68-19.27,23.68c-1.44,0-2.87-0.25-4.31-0.78
				c0.16,1.25,0.31,1.91,0.31,1.91L250.67,268.92z M270.26,247.87c0-5.37-2.84-10.12-10.22-10.18c-2.87,10.78-3.56,18.78-3.56,24.02
				v0.97c0.97,0.44,1.91,0.62,2.84,0.62C265.29,263.3,270.26,255.02,270.26,247.87z"/>
			<path d="M286.57,268.99c-3-3.78-4.34-11.5-4.34-17.74c0-2.87,0.28-5.47,0.81-7.19l13.09-0.12c-4.03,9.34-4.25,21.9-4.25,24.59
				v0.53L286.57,268.99z M295.69,235.69c0-3.44-2.78-6.22-6.22-6.22c-3.44,0-6.22,2.78-6.22,6.22c0,3.44,2.78,6.22,6.22,6.22
				C292.91,241.9,295.69,239.12,295.69,235.69z"/>
			<path d="M302.59,268.96c-3-5.97-4.28-18.12-4.28-27.99c0-4.65,0.28-8.78,0.81-11.53l13.09-0.22c-1.53,3.94-2.53,8.59-3.19,13.28
				c2.59-7.65,5.72-13.21,9.59-13.25c8.31,0,10.37,13.65,10.37,25.18c0,6.4-0.62,12.18-1.19,14.59h-10.75
				c0.47-2.31,2.37-16.56,2.37-24.21c0-2.91-0.28-4.87-1-4.87l-0.12,0.03c-5.22,1.56-9.9,22.49-10.4,29.08L302.59,268.96z"/>
			<path d="M346.61,269.11c-7.47,0-13.53-2.09-14.93-9.9c-0.12-0.72-0.19-1.44-0.19-2.19c0-8.18,7.84-16.81,14.59-16.81
				c3.19,0,6.15,1.97,7.87,6.87c0.47-1.41,0.69-2.78,0.69-4.06c0-4.03-2.25-7.22-6.81-7.22c-2.72,0-6.25,1.12-10.62,3.84l0.44-9.47
				c3.03-0.59,5.75-0.87,8.28-0.87c13.81,0,19.59,8.4,19.59,18.84c0,6.72-2.37,14.28-6.59,20.96l-7.97,0.03L346.61,269.11z
				 M351.01,264.71c0.37-1.75,0.53-3.53,0.53-5.22c0-6.25-2.25-11.56-4.78-11.56c-1.28,0-2.59,1.31-3.75,4.5
				c-0.56,1.53-0.87,3.25-0.87,4.9c0,4,1.81,7.72,6.31,7.72C349.23,265.05,350.08,264.96,351.01,264.71z"/>
			<path d="M396.25,268.92c-2.47-5.25-3.16-12.9-3.16-19.93c0-3,0.12-5.9,0.28-8.43l-2.56,1.09l-2.06-10.12
				c7.06-2,13.03-2.91,17.96-2.91c13.96,0,19.21,7.28,19.21,15.59c0,10.97-9.12,23.68-19.27,23.68c-1.44,0-2.87-0.25-4.31-0.78
				c0.16,1.25,0.31,1.91,0.31,1.91L396.25,268.92z M415.84,247.87c0-5.37-2.84-10.12-10.22-10.18c-2.87,10.78-3.56,18.78-3.56,24.02
				v0.97c0.97,0.44,1.91,0.62,2.84,0.62C410.87,263.3,415.84,255.02,415.84,247.87z"/>
			<path d="M436.83,266.18c-5.19-3.75-8.4-10.72-8.4-17.68c0-3.06,0.62-6.12,1.97-8.9c3.44-7.06,9.56-10.18,15.31-10.18
				c7.25,0,13.9,4.94,13.9,13.25c0,7.53-5.78,15.46-14.93,15.46c-1.66,0-3.44-0.25-5.28-0.81c1.25,3.81,4.06,5.81,7.59,5.81
				c3.22,0,6.5-1.75,7.84-4.72l4.19,1.91c-2.53,5.5-7.97,8.68-13.59,8.68C442.45,268.99,439.45,268.08,436.83,266.18z
				 M451.36,244.09c0-0.47-0.03-0.91-0.06-1.34c-0.44-5.03-2.12-7.22-4.15-7.22c-3.81,0-8.56,7.81-8.56,16.28v0.19
				c2.03,0.78,3.81,1.12,5.31,1.12C449.33,253.12,451.36,248.56,451.36,244.09z"/>
			<path d="M461.41,257.68v-0.37l9.43-0.34c-0.22,1.06-0.34,2.03-0.34,2.87c0,3.78,2.09,5.19,4.22,5.19c2.22,0,4.53-1.56,4.53-3.65
				c-0.03-5.81-9.93-4.15-15.34-10.81c-1.69-2.06-2.44-4.37-2.44-6.65c0-7.25,7.47-14.43,16.68-14.43
				c7.19,0.03,12.03,5.94,12.03,12.15c0,3.47-1.56,7-5.15,9.47l-6.47-5.34c2.16-2.22,3-4.34,3-6.03c0-2.12-1.34-3.53-3.09-3.53
				c-3.03,0-5.47,4.25-5.47,7.87c0,1.16,0.25,2.25,0.84,3.06c3.31,4.5,14.65,3.81,14.65,12.62c0,0.44-0.03,0.87-0.09,1.37
				c-0.62,5.12-6.84,8.09-13.15,8.09C468.38,269.21,461.41,265.71,461.41,257.68z"/>
			<path d="M496.4,268.99c-3-3.78-4.34-11.5-4.34-17.74c0-2.87,0.28-5.47,0.81-7.19l13.09-0.12c-4.03,9.34-4.25,21.9-4.25,24.59
				v0.53L496.4,268.99z M505.52,235.69c0-3.44-2.78-6.22-6.22-6.22s-6.22,2.78-6.22,6.22c0,3.44,2.78,6.22,6.22,6.22
				S505.52,239.12,505.52,235.69z"/>
			<path d="M507.99,257.18h9.22c0.59,3.12,2.56,5.19,4.65,5.19c2.47,0,5.06-2.94,5.62-10.59c-2.62,2.03-5.34,2.91-7.93,2.91
				c-5.5,0-10.25-4.06-11.62-9.62c-0.28-1.12-0.41-2.22-0.41-3.28c0-7.15,6.03-12.28,12.06-12.28c2.09,0,4.22,0.62,6.06,1.97
				l-0.41-1.97h11.71c0.84,5.31,1.22,9.97,1.22,14.06c0,18.81-8.09,25.49-15.9,25.49C515.37,269.05,508.65,263.83,507.99,257.18z
				 M527.58,246.43c-0.06-1.59-0.22-3.34-0.41-5.25c-1.09-2.72-2.87-3.94-4.53-3.94c-1.56,0-3,1.06-3.66,2.87
				c-0.5,1.37-0.72,2.81-0.72,4.15c0,3.41,1.5,6.25,3.84,6.25C523.64,250.52,525.52,249.34,527.58,246.43z"/>
			<path d="M545.26,268.96c-3-5.97-4.28-18.12-4.28-27.99c0-4.65,0.28-8.78,0.81-11.53l13.09-0.22c-1.53,3.94-2.53,8.59-3.19,13.28
				c2.59-7.65,5.72-13.21,9.59-13.25c8.31,0,10.37,13.65,10.37,25.18c0,6.4-0.62,12.18-1.19,14.59h-10.75
				c0.47-2.31,2.37-16.56,2.37-24.21c0-2.91-0.28-4.87-1-4.87l-0.12,0.03c-5.22,1.56-9.9,22.49-10.4,29.08L545.26,268.96z"/>
		</g>
		<path d="M255.71,190.82c0,0-3.56-11.25-2.14-18.66c1.42-7.41,7.12-9.55,17.1-9.12c9.97,0.43,13.82,5.27,12.68,15.67
			c-1.14,10.4-17.67,8.83-17.67,8.83l1,3.28h19.52l-3.85,16.24h13.96c-0.71,6.98,1.85,9.97,1.85,9.97l-9.55,3.56
			c-2.14-1.71-2.85-7.41-2.85-7.41h-15.53l3.7-16.38h-18.24c-1,5.7-3.13,7.84-3.13,7.84l-9.4-3.56c2.71-4.42,1.85-10.26,1.85-10.26
			H255.71z M272.9,177.57l-0.09-3.56c0.57-4.13-1.71-5.13-6.13-4.84c-4.42,0.28-2.14,11.97-2.14,11.97
			C273.52,182.99,272.9,177.57,272.9,177.57z"/>
		<path d="M343.9,173.73c0,0-1.99-2.14-1.57-10.12h-11.54c0,0-17.95,0.14-22.51,7.12s-4.13,14.48-2.71,21.06h15.24v21.25h10.68
			v-27.07h-15.81c0,0-1.71-9.83,3.56-13.53c5.27-3.7,12.54-2.42,12.54-2.42s0.28,4.42,2.42,7.41L343.9,173.73z"/>
		<path d="M381.32,190.82c0,0-3.56-11.25-2.14-18.66c1.42-7.41,7.12-9.55,17.1-9.12s13.82,5.27,12.68,15.67
			c-1.14,10.4-17.67,8.83-17.67,8.83l1,3.28h19.52l-3.85,16.24h13.96c-0.71,6.98,1.85,9.97,1.85,9.97l-9.55,3.56
			c-2.14-1.71-2.85-7.41-2.85-7.41h-15.53l3.7-16.38h-18.24c-1,5.7-3.13,7.84-3.13,7.84l-9.4-3.56c2.71-4.42,1.85-10.26,1.85-10.26
			H381.32z M398.51,177.57l-0.09-3.56c0.57-4.13-1.71-5.13-6.13-4.84s-2.14,11.97-2.14,11.97
			C399.13,182.99,398.51,177.57,398.51,177.57z"/>
		<polygon points="443.2,170.17 432.37,170.17 432.37,202.79 443.2,202.79 443.2,186.98 452.74,186.98 452.74,213.19 463.71,213.19 
			463.71,164.04 452.89,164.04 452.89,180.71 443.34,180.71 		"/>
		<path d="M472.78,211.71c0,0,2.37-1.99,1.71-9.69h13.3l-3.99-16.72c0,0-6.93-22.99,12.54-22.23c0,0,14.53-1.42,16.72,8.55v6.17
			c0,0,1.8,11.59-17.57,10.35l3.04,13.77h5.98c0,0,10.04,1.06,9.31-10.92h10.64c0,0,1.33,14.63-12.44,16.24
			c-13.77,1.61-26.69,0.76-26.69,0.76s-1.04,5.7-2.94,7.6L472.78,211.71z M499.28,181.98c3.7-0.57,3.13-4.46,3.13-4.46
			s0.28-2.18,0-5.13c-0.28-2.94-3.61-4.18-6.93-2.94s-1.23,12.54-1.23,12.54H499.28z"/>
		<path d="M531.67,175.52c0,0,2.37-3.04,1.71-9.02c0,0,28.68-10.64,29.44,4.51l-1.71,9.45h10.54l-7.03,32.67h-10.92l5.89-26.79
			h-10.83l2.9-13.11c0,0,2.23-4.65-3.09-3.89c-5.32,0.76-4.46,1.33-4.46,1.33s0.47,3.8-3.13,8.74L531.67,175.52z"/>
	</g>
	<path d="M197.04,128.13c-5.13-4.75-17.12-3.86-17.12-3.86s1.2-1.83,1.65-4.9s-2.37-6.33-6.87-5.73c-4.49,0.6-6.33,7.21-3.61,9.4
		c2.72,2.18,4.56,1.49,5.38,1.55c0.82,0.06-0.09,2.56-0.7,3.73c-0.6,1.17-0.7,3.45-0.7,3.45c-0.13,7.85,5.76,15.69,5.76,15.69
		c1.35-2.78,2.99-2.66,2.99-2.66l0.51,4.09c7.89,6.58,9.58,5.61,10.71,2.66c1.14-2.95,1.43-9.53,1.43-9.53
		c1.81-1.33,2.57,0.27,2.57,0.27l0.89,1.71c0,0-1.48,7.17-4.05,11.47c-2.57,4.3-7.04,0.04-7.04,0.04s-0.63,2.19-0.3,4.68
		s2.78,0.51,2.78,0.51s2.49-1.77,3.92-2.19s2.28,1.52,2.28,1.52s4.26,9.74,5.53,9.62c1.27-0.13,6.41,0.76,6.41,0.76
		c1.01,6.96,0.04,10.33,0.04,10.33c8.18-6.66,8.18-9.32,8.18-9.32c-3.5-6.71-9.03-8.39-9.03-8.39c-0.04-2.66,2.73-2.66,2.73-2.66
		c-0.35-5.98-0.42-13.12,1.19-13.25c2.78-0.21,2.78,4.68,2.78,4.68c2.66,0.84,1.98-7.8,4.94-6.45c2.95,1.35-1.18,8.1-1.18,8.1
		c1.18,1.98,3.63-4.64,4.89-2.95s-1.24,4.18-1.24,4.18s-1.77,1.27,0.44,1.33c2.21,0.06,3.61,1.96,0.76,2.72
		c-2.85,0.76-1.2,3.42-1.96,5.06s-2.91-3.99-2.91-3.99s-2.02-6.58-3.42-5.13s0.89,5.32-0.57,4.49c-1.46-0.82-2.34,3.54,1.46,6.77
		c3.8,3.23,3.67,5.88,3.67,5.88s1.52-1.52,1.65-3.16c0.13-1.65,1.08-1.08,1.08-1.08c3.23,3.35-1.83,9.17-1.83,9.17
		s-1.58,10.19-3.35,12.84c-1.77,2.66-8.23,7.09-2.78-2.28s3.92-12.4,3.92-12.4c-7.09,10-11.14,11.77-11.14,11.77
		c-3.42-0.89-10.12-18.1-10.12-18.1s0,0-1.27-4.18s-8.48,2.02-8.48,2.02c-3.16-2.15-2.02-12.53-2.02-12.53
		c-3.29-1.9-4.3-4.43-4.3-4.43s-0.89,12.65-1.39,24.17s14.68,27.84,16.58,30.25c1.9,2.4-3.08,2.99-3.08,2.99
		c-69.09,33.41-74.37,64.97-69.18,72.06c5.19,7.09,63.65-28.85,63.65-28.85c-1.27-18.35,8.73-50.62,21.26-55.05
		c12.53-4.43,12.4,2.66,12.4,2.66c1.77,28.6-24.17,49.86-24.17,49.86c0.51,14.55,4.05,27.04,9.7,34.21s6.83,0.76,6.83,0.76
		c1.43-11.05-9.11-22.1-9.11-22.1s-5.91-5.57-0.76-6.5c5.15-0.93,6.07-3.54,6.07-3.54c0.51-19.83,11.22-22.19,14.76-21.18
		c3.54,1.01-0.42,2.62-0.42,2.62c-10.55,7.93-6.58,19.15-6.58,19.15c6.5,1.69,7-7.68,7-7.68c3.12-2.53,3.04,1.94,3.04,1.94
		c-2.87,16.62-16.03,9.2-16.03,9.2c-2.95,0.34-6.16,2.11-6.16,2.11c23.28,23.79,8.86,33.41,8.86,33.41
		c-22.27,1.52-25.06-34.42-25.06-34.42c-73.65,52.64-80.48,26.32-80.48,26.32c6.07-55.43,82.51-78.12,82.51-78.12
		s-8.18-8.77-13.25-16.11c-5.06-7.34-3.29-14.26-3.29-14.26l3.29-23.37c-12.91-9.7-8.77-20.67-8.77-20.67
		c-10.8-0.67-8.94-19.49,4.72-19.32c13.67,0.17,10.12,11.56,10.12,11.56c29.36,0.51,14.6,17.46,14.6,17.46
		S202.16,132.87,197.04,128.13z M203.05,172.64l3.16,6.07v-6.07H203.05z M219.19,204.53c1.14-7.59-2.94-13.2-12.97,3.42
		c-10.03,16.61-8.54,33.24-8.54,33.24C214.5,225.2,218.05,212.13,219.19,204.53z"/>
</g>
</svg>
