<?xml version="1.0" encoding="utf-8"?>
<!-- Generator: Adobe Illustrator 27.0.0, SVG Export Plug-In . SVG Version: 6.00 Build 0)  -->
<svg version="1.1" id="Layer_1" xmlns="http://www.w3.org/2000/svg" xmlns:xlink="http://www.w3.org/1999/xlink" x="0px" y="0px"
	 viewBox="0 0 198.43 198.43" style="enable-background:new 0 0 198.43 198.43;" xml:space="preserve">
<style type="text/css">
	.st0{fill-rule:evenodd;clip-rule:evenodd;fill:#FFF685;stroke:#000000;stroke-width:4;stroke-miterlimit:10;}
	.st1{fill-rule:evenodd;clip-rule:evenodd;}
	.st2{fill-rule:evenodd;clip-rule:evenodd;fill:#FFF685;}
	.st3{fill-rule:evenodd;clip-rule:evenodd;fill:#FFFFFF;}
	.st4{fill:#FFFFFF;}
	.st5{font-family:'Montserrat-Bold';}
	.st6{font-size:8px;}
	.st7{letter-spacing:1;}
</style>
<ellipse transform="matrix(0.3162 -0.9487 0.9487 0.3162 -27.5349 163.1663)" class="st0" cx="99.42" cy="100.68" rx="61.84" ry="61.84"/>
<ellipse transform="matrix(0.2298 -0.9732 0.9732 0.2298 -21.213 174.4874)" class="st1" cx="99.63" cy="100.65" rx="58.51" ry="58.51"/>
<path class="st2" d="M82.49,80.74c-1.91,1.18-2.13,2.56-0.94,3.83c3.36,3.58,11.79,4.12,16.52,4.01c3.22-0.07,6.42-0.64,9.36-2.02
	c3.39-1.59,2.65-3.38,0.64-4.82c-2.01-1.44-5.28-2.52-6.92-2.69c1.95,1.19,4.16,2.31,4.43,3.89c0.24,1.07-0.97,1.35-2.84,1.28
	c0.97-1.11-3.07-2.34-6.6-2.39c-2.83-0.04-5.67,0.19-8.65,1.39c-1.03,0.41-2.69,1.44,0.01,2.77C85.91,85.55,79.49,83.3,82.49,80.74"
	/>
<path class="st2" d="M91.38,57.34c2.65,0.9,4.82,1.96,4.86,3.57c0.04,1.8-1.16,3.49-2.66,5.24c-2.26,2.64-2.72,4.63-0.96,6.91
	c1.67,2.17,3.79,3.57,3.77,7.3c1.22-2.05,1.48-4.44,0.17-6.06c-1.62-2.01-1.36-3.79,0.2-5.66c2.11-2.54,3.08-4.84,2.21-7.35
	C97.81,57.92,94.63,57.52,91.38,57.34"/>
<path class="st2" d="M84.97,87.8c0.4,5.3,3.55,9.85,8.01,12.24c-7.03-1.12-12.44-7.23-12.44-14.57c0-0.11,0-0.23,0-0.35
	c0.06,0.08,0.13,0.15,0.2,0.23C81.58,86.24,83.02,87.08,84.97,87.8"/>
<path class="st2" d="M114.32,77.87c4.04,0,7.34,3.3,7.34,7.34c0,4.04-3.3,7.34-7.34,7.34c-0.33,0-0.65-0.02-0.96-0.06
	c0.43-1.06,0.77-2.16,1-3.3c2.17-0.02,3.93-1.8,3.93-3.98c0-2.18-1.76-3.95-3.93-3.98c-0.24-1.14-0.58-2.24-1-3.3
	C113.67,77.89,113.99,77.87,114.32,77.87"/>
<path class="st2" d="M93.64,106.95h8.59c3.59,0,6.52,2.93,6.52,6.52v0.31c0,3.59-2.93,6.52-6.52,6.52h-3.47v-2.74h3.23
	c2.08,0,3.78-1.7,3.78-3.78v-0.31c0-2.08-1.7-3.78-3.78-3.78h-5.4v10.64h-1.48l-6.75-7.65v7.65H85.4v-13.38h1.54l6.69,7.57
	 M76.21,115.85c0.44,1.2-0.22,1.74-0.58,2.29c-0.29,0.45-0.45,0.99-0.22,1.82c-0.59-0.83-0.75-1.74-0.39-2.31
	C75.4,117.06,76.09,116.85,76.21,115.85z M71.78,120.32h3.15h1.6c-0.86-1.18-0.6-2.21,0.57-3.58c0.79-0.93,1.43-1.82,1.41-2.78
	c-0.02-0.85-1.17-1.41-2.57-1.89c1.72,0.09,3.4,0.3,4.02,2.09c0.46,1.33-0.05,2.55-1.17,3.89c-0.63,0.75-0.86,1.48-0.55,2.26h0.96
	c-0.14-0.55-0.08-1.29,0.41-1.88c0.41-0.49,0.97-1.01,1.1-2.02c0.06-0.46,0.05-0.95,0.04-1.45c0.27,0.59,0.53,1.17,0.67,1.77
	c0.23,1.04-0.42,1.68-1.24,2.51c-0.27,0.28-0.53,0.59-0.7,1.06h2.24h3.15l-5.84-13.61h-1.38L71.78,120.32z M61.51,106.95h5.41
	c2.36,0,4.29,1.93,4.29,4.29l0,0c0,1.56-0.85,2.94-2.11,3.69l2.72,3.71l-0.73,1.69h-1.53l-3.52-4.8h-0.53v-2.72h1.11
	c0.86,0,1.56-0.7,1.56-1.56c0-0.86-0.7-1.56-1.56-1.56h-5.12V106.95z M60.22,109.86l-2.2,1.8c-0.7-1.18-1.64-1.81-2.77-2.06
	c-2.05-0.46-3.86,0.7-4.5,2.31c-0.56,1.4-0.59,3.28,0.91,4.77c1.09,1.08,2.69,1.36,4.3,0.88c0.79-0.23,1.39-0.75,1.8-1.38v-0.67
	h-3.83v-2.72h10.53v2.72h-3.75v1.3c-0.98,1.98-2.68,3.08-4.75,3.55c-3.13,0.72-5.85-0.72-7.32-2.73c-1.71-2.34-1.43-5.27-0.48-7.12
	c1.21-2.35,3.38-3.56,5.61-3.79C56.22,106.6,58.49,107.31,60.22,109.86z M143.85,114.73h2.96c0.79,0,1.43,0.64,1.43,1.43l0,0
	c0,0.79-0.64,1.43-1.43,1.43h-2.96V114.73z M135.87,106.95v8.32c0,1.36-1.11,2.47-2.47,2.47h-0.25c-1.36,0-2.47-1.11-2.47-2.47
	v-8.32h-3.01v8.21c0,2.93,2.4,5.33,5.33,5.33h0.55c2.93,0,5.33-2.4,5.33-5.33v-5.51h6.89c0.66,0,1.2,0.54,1.2,1.2l0,0
	c0,0.66-0.54,1.2-1.2,1.2h-4.87v8.27h6.06c2.36,0,4.29-1.81,4.29-4.02l0,0c0-1.46-0.84-2.74-2.09-3.45
	c0.47-0.61,0.74-1.36,0.74-2.17v0c0-2.05-1.78-3.73-3.95-3.73h-7.08h-2.19H135.87z M125.63,120.32h-2.95v-5.7h-5.24v5.7h-2.95
	v-13.38h2.95v4.96h5.24v-4.96h2.95V120.32z"/>
<path class="st3" d="M100.26,72.93c-0.81-0.82-1.4-2.62-0.6-4.28c0.52-1.09,1.3-2.31,1.07-4.2c-0.11-0.86-0.35-1.76-0.59-2.67
	c0.77,0.95,1.52,1.9,2.04,2.93c0.66,1.31,0.36,2.47-0.29,3.74c6.79,2.65,11.63,9.27,11.63,16.98c0,10.04-8.19,18.22-18.22,18.22
	c-10.04,0-18.22-8.18-18.22-18.22c0-7.99,5.19-14.8,12.36-17.25c0.08-0.16,0.17-0.31,0.28-0.44c0.85-1.03,2.19-1.26,2.65-3.12
	c0.55,2.35-0.81,3.22-1.61,4.17c-0.65,0.77-1.06,1.76-0.83,3.37c-0.33-0.61-0.56-1.23-0.67-1.82c-5.98,2.41-10.22,8.27-10.22,15.1
	c0,8.96,7.31,16.27,16.27,16.27c8.96,0,16.27-7.31,16.27-16.27c0-6.99-4.44-12.97-10.65-15.26
	C100.52,70.89,100.21,71.73,100.26,72.93"/>
<text transform="matrix(1 0 0 1 62.0893 131.8396)" class="st4 st5 st6 st7">CAFE &amp; HALLS</text>
</svg>
