<svg id="Layer_1" data-name="Layer 1" xmlns="http://www.w3.org/2000/svg" viewBox="0 0 274.86 274.86"><defs><style>.cls-1{fill:#fff;}</style></defs><path class="cls-1" d="M107.85,83.51,94.33,46.72s30,53.46,24.37,1.57c0,0,8.18,20.52,14.62,21.07,5.51.47,12.11-21.07,12.11-21.07l-3.24-5.81,7.17-12.42L152,44.21l-4.4,3.93s-.31,22.8,4.4,24.37,20.28-15.73,20.28-15.73-8.84,16.39-4.24,22.65C172,84.77,195.74,64,195.74,64l-23,28.61,7.07-13s1.42-1.88-2.83.63-15.56,6.13-12.73-10.69c0,0-18.71,19.65-19.26-12.11,0,0-8.73,29.41-22.57,5.35,0,0-1.25,21.85-17.61,4.09Z"/><polygon class="cls-1" points="92.64 41.87 92.64 45.13 94.33 46.72 94.66 44.3 92.64 41.87"/><polygon class="cls-1" points="199.4 59.27 196.71 61.12 196.35 63.41 198.54 62.31 199.4 59.27"/><polygon class="cls-1" points="116.52 39.44 115.87 45.24 118.2 47.14 119.78 44.3 116.52 39.44"/><polygon class="cls-1" points="172.99 55.96 172.99 53.18 177.31 49.73 175.86 55.24 172.99 55.96"/><path class="cls-1" d="M152.38,68.91a3.5,3.5,0,0,1-.77-3c.48-1.53,4.22-9.2,4.22-9.2l1,11.7s-1,1.34-1.83,1.34l-.38-5.27Z"/><path class="cls-1" d="M131.59,65.65a3.5,3.5,0,0,1-.77-3c.48-1.53,4.22-9.2,4.22-9.2l1,11.7s-1,1.34-1.82,1.34l-.38-5.27Z"/><path class="cls-1" d="M168.84,76.78a1.69,1.69,0,0,1,.14-1.56c.52-.64,3.81-3.56,3.81-3.56l-1.61,5.74s-.73.45-1.17.29l.75-2.58Z"/><path class="cls-1" d="M114,67.8a1.68,1.68,0,0,1-.87-1.29c0-.83.69-5.17.69-5.17l2.39,5.46s-.28.82-.73,1l-1-2.47Z"/><path class="cls-1" d="M105.49,185.88c-4.22-15.44-17.83-17.16-17.83-17.16-15.34-1.54-11.13-8.34-10-11a6.15,6.15,0,0,0,0-4.94l-1.53-1.19c.77-2.5,5.08-2.4,5.08-2.4v-.9a1.09,1.09,0,0,0-.51-.93c-3.08-1.94-2.56-4-2.56-4,2.31-.29,2.59-1.73,2.59-1.73a3.54,3.54,0,0,0-.28-3.35c-7-1.44-4.61-5.27-4.61-5.27s10.07-8.25,11.7-10.26.58-6.43,3.64-9.69,3.13-13.8,3.13-13.8c-2-1.06-3.7,9.1-3.7,9.1-.86-13.23,8-15.24,5-14.76s-4.5,4.79-4.5,4.79c1.24-6.23,8.44-7.86,8.44-7.86s13.86-9.34,38.47-6.29,26,23.24,26,23.24,4.39,16.9-16.19,41.44c-24.16,28.8-19.56,52.68-14.91,62.77C133,211.64,110.09,200.38,105.49,185.88Z"/><path class="cls-1" d="M144.12,167.93s-16.2,20.48-7.84,47c0,0,4.06,21.62,32,29.56a7.13,7.13,0,0,0,5.27-.47c3.14-1.67,6-6.25-3.48-18.76C155.53,206,128.89,198.66,144.12,167.93Z"/><path class="cls-1" d="M158.91,92.63s37.44,30.06-4.34,62.22c-26.95,20.75-21.6,53-21.6,53s-7.86-23.24,9.95-48.13C157,140.07,178.62,116.35,158.91,92.63Z"/><path class="cls-1" d="M145.2,168.32c-9.54,20.81-3.23,27.83,16.9,45.85,17.13,15.34,15.65,25.19,15.65,25.19,3.45-7.1-1.57-18.78-13.15-26.6S150.22,198,149.75,191c0,0-1.4-5.11,2.82-11.74,8.45-8.45,20.06-5.49,26.17-5.49a38.59,38.59,0,0,0,10.56-1.41c10.37-4.09,1.57-8,4.71-12.58s-2.36-4.56-.47-6,2.52-3.75.94-4.85-3.46-3.77-.47-6,1.73-4.41,1.73-4.41-5.66-3.3-9.9-6.13-2.36-5-2.36-5a12,12,0,0,0,4.71-2c-3,1.1-6-1.1-6-1.1,1.57-31.61-27.08-35.59-27.08-35.59s22.58,12.17,21.3,36.19c-.89,16.59-12.87,27.26-20.27,32.31a39.31,39.31,0,0,0-10.59,10.61l-.38.56"/></svg>